<svg
 xmlns="http://www.w3.org/2000/svg"
 xmlns:xlink="http://www.w3.org/1999/xlink"
 width="35px" height="35px">
<path fill-rule="evenodd"  stroke-width="1px" stroke="rgb(128, 128, 128)" fill-opacity="0" fill="rgb(204, 204, 204)"
 d="M17.500,6.500 C23.575,6.500 28.500,11.425 28.500,17.500 C28.500,23.575 23.575,28.500 17.500,28.500 C11.425,28.500 6.500,23.575 6.500,17.500 C6.500,11.425 11.425,6.500 17.500,6.500 Z"/>
<path fill-rule="evenodd"  fill="rgb(128, 128, 128)"
 d="M22.491,16.256 C22.491,14.199 21.309,12.764 19.272,12.764 L16.495,12.764 L16.014,12.764 L15.676,12.764 C15.398,12.764 15.167,13.017 15.167,13.322 L15.167,22.544 C15.167,22.845 15.393,23.094 15.666,23.094 L16.470,23.094 C16.743,23.094 16.968,22.845 16.968,22.544 L16.968,19.747 L19.314,19.747 C21.238,19.747 22.491,18.206 22.491,16.256 ZM19.258,17.885 L16.968,17.885 L16.968,14.624 L19.258,14.624 C20.116,14.624 20.633,15.196 20.633,16.256 C20.633,17.314 20.116,17.885 19.258,17.885 Z"/>
</svg>
